<svg xmlns="http://www.w3.org/2000/svg" viewBox="0 0 512 512">
  <defs>
    <linearGradient id="bg" x1="0%" y1="0%" x2="100%" y2="100%">
      <stop offset="0%" style="stop-color:#fdf2f8"/>
      <stop offset="100%" style="stop-color:#fce7f3"/>
    </linearGradient>
    <linearGradient id="tooth" x1="0%" y1="0%" x2="100%" y2="100%">
      <stop offset="0%" style="stop-color:#ffffff"/>
      <stop offset="100%" style="stop-color:#f9a8d4"/>
    </linearGradient>
  </defs>
  <rect width="512" height="512" rx="100" fill="url(#bg)"/>
  <path d="M256 80 C180 80 100 140 100 220 C100 300 140 340 180 440 C192 470 212 470 224 440 C236 410 256 360 256 360 C256 360 276 410 288 440 C300 470 320 470 332 440 C372 340 412 300 412 220 C412 140 332 80 256 80 Z" fill="url(#tooth)" stroke="#ec4899" stroke-width="8"/>
  <circle cx="220" cy="240" r="20" fill="#fce7f3"/>
  <circle cx="292" cy="240" r="20" fill="#fce7f3"/>
  <ellipse cx="230" cy="210" rx="10" ry="12" fill="#1f1f1f"/>
  <ellipse cx="282" cy="210" rx="10" ry="12" fill="#1f1f1f"/>
  <circle cx="225" cy="205" r="3" fill="white"/>
  <circle cx="277" cy="205" r="3" fill="white"/>
  <path d="M232 270 Q256 295 280 270" fill="none" stroke="#f472b6" stroke-width="8" stroke-linecap="round"/>
  <text x="256" y="60" text-anchor="middle" font-size="40">✨</text>
</svg>
